<svg xmlns="http://www.w3.org/2000/svg" xmlns:xlink="http://www.w3.org/1999/xlink" version="1.1" id="Your_Icon" x="0px" y="0px" width="100px" height="100px" viewBox="0 0 100 100" enable-background="new 0 0 100 100" xml:space="preserve">
<path d="M89.615,29.471c-2.969,0-5.385,2.416-5.385,5.385c0,0.81,0.185,1.576,0.507,2.266L66.193,53.553  c-0.856-0.573-1.884-0.909-2.989-0.909c-1.653,0-3.133,0.75-4.121,1.926l-16.928-6.943c0.013-0.153,0.023-0.307,0.023-0.463  c0-2.969-2.415-5.385-5.385-5.385s-5.385,2.416-5.385,5.385c0,0.517,0.077,1.016,0.214,1.49L13.539,60.79  c-0.888-0.645-1.976-1.03-3.155-1.03C7.415,59.76,5,62.175,5,65.144c0,2.969,2.415,5.385,5.385,5.385s5.385-2.416,5.385-5.385  c0-0.672-0.129-1.313-0.355-1.907l17.875-11.996c0.943,0.812,2.167,1.306,3.506,1.306c1.715,0,3.241-0.808,4.228-2.061l16.838,6.907  c-0.025,0.208-0.041,0.419-0.041,0.634c0,2.969,2.416,5.385,5.385,5.385c2.969,0,5.385-2.416,5.385-5.385  c0-0.747-0.154-1.459-0.43-2.107l18.62-16.498c0.825,0.514,1.795,0.816,2.836,0.816c2.969,0,5.385-2.416,5.385-5.385  C95,31.887,92.585,29.471,89.615,29.471z"/>
</svg>